<svg width="40" height="40" viewBox="0 0 40 40" fill="none" xmlns="http://www.w3.org/2000/svg">
    <rect width="40" height="40" rx="20" fill="url(#paint0_linear_39409_2026)"/>
    <path d="M18.6885 15.0469V16.5303H13.8281V15.0469H18.6885ZM20.0762 15.0469V25H18.1895V15.0469H20.0762ZM13.5273 15.0469H15.4004L15.1543 20.0166C15.1178 20.7503 15.0518 21.3929 14.9561 21.9443C14.8604 22.4958 14.7305 22.9674 14.5664 23.3594C14.4023 23.7467 14.1973 24.0612 13.9512 24.3027C13.7051 24.5443 13.4134 24.722 13.0762 24.8359C12.7435 24.9453 12.3561 25 11.9141 25H11.4424V23.5234L11.709 23.4961C11.9414 23.4779 12.1419 23.4209 12.3105 23.3252C12.4837 23.2295 12.6318 23.0859 12.7549 22.8945C12.8779 22.6986 12.9782 22.4479 13.0557 22.1426C13.1377 21.8372 13.2015 21.4658 13.2471 21.0283C13.2972 20.5908 13.3337 20.0781 13.3564 19.4902L13.5273 15.0469ZM28.4092 15.0469V16.5303H23.8564V25H21.9834V15.0469H28.4092ZM23.248 18.7725H25.6611C26.4313 18.7725 27.0921 18.9023 27.6436 19.1621C28.195 19.4173 28.6165 19.7751 28.9082 20.2354C29.2044 20.6956 29.3525 21.2357 29.3525 21.8555C29.3525 22.3203 29.2682 22.7441 29.0996 23.127C28.9355 23.5098 28.694 23.8424 28.375 24.125C28.056 24.403 27.6686 24.6195 27.2129 24.7744C26.7572 24.9248 26.2399 25 25.6611 25H21.9834V15.0469H23.8701V23.5234H25.6611C26.0713 23.5234 26.4108 23.446 26.6797 23.291C26.9486 23.1361 27.1491 22.931 27.2812 22.6758C27.4134 22.4206 27.4795 22.1426 27.4795 21.8418C27.4795 21.5456 27.4134 21.2767 27.2812 21.0352C27.1491 20.7936 26.9486 20.6022 26.6797 20.4609C26.4108 20.3197 26.0713 20.249 25.6611 20.249H23.248V18.7725Z" fill="white"/>
    <rect x="0.25" y="0.25" width="39.5" height="39.5" rx="19.75" stroke="black" stroke-opacity="0.08" stroke-width="0.5"/>
    <defs>
        <linearGradient id="paint0_linear_39409_2026" x1="0" y1="0" x2="40" y2="40" gradientUnits="userSpaceOnUse">
            <stop stop-color="#7DF1FA"/>
            <stop offset="1" stop-color="#2BB4D6"/>
        </linearGradient>
    </defs>
</svg>
