<svg xmlns="http://www.w3.org/2000/svg" width="102" height="80" viewBox="0 0 102 80" fill="none">
    <path fill-rule="evenodd" clip-rule="evenodd" d="M16.3324 24.2276C16.6328 25.7063 15.6776 27.1485 14.1989 27.4489C11.2945 28.0389 9.10686 30.6139 9.10686 33.6964V66.4821C9.10686 70.0049 11.9599 72.8571 15.475 72.8571H26.3954C28.9114 72.8571 30.9476 74.8978 30.9476 77.4107V88.2541L47.8364 74.651L48.331 74.2353C49.486 73.2643 51.2094 73.4136 52.1804 74.5686C53.1513 75.7237 53.0021 77.4471 51.847 78.418L51.3087 78.8706L32.9377 93.6675C29.9728 96.1249 25.4833 94.0133 25.4833 90.1593V78.3214H15.475C8.9382 78.3214 3.64258 73.0189 3.64258 66.4821V33.6964C3.64258 27.967 7.70782 23.1916 13.1111 22.094C14.5898 21.7936 16.032 22.7488 16.3324 24.2276Z" fill="#8B74FF" fill-opacity="0.5"/>
    <path fill-rule="evenodd" clip-rule="evenodd" d="M21.8569 20.9464C21.8569 14.4078 27.1575 9.10714 33.6961 9.10714H84.6962C91.2348 9.10714 96.5354 14.4078 96.5354 20.9464V53.7321C96.5354 60.2708 91.2348 65.5714 84.6962 65.5714H76.4997V77.3991C76.4997 81.2558 72.0088 83.3608 69.0459 80.9096L51.8064 67.0851L51.7826 67.0651C50.6341 66.1003 49.1822 65.5714 47.6823 65.5714H33.6961C27.1575 65.5714 21.8569 60.2708 21.8569 53.7321V20.9464ZM33.6961 14.5714C30.1753 14.5714 27.3211 17.4256 27.3211 20.9464V53.7321C27.3211 57.253 30.1753 60.1071 33.6961 60.1071H47.6823C50.4568 60.1071 53.1429 61.0816 55.2718 62.8598L71.0354 75.5008V64.6607C71.0354 62.1458 73.0741 60.1071 75.589 60.1071H84.6962C88.217 60.1071 91.0712 57.253 91.0712 53.7321V20.9464C91.0712 17.4256 88.217 14.5714 84.6962 14.5714H33.6961Z" fill="#8B74FF" fill-opacity="0.5"/>
</svg>