<svg width="14" height="15" viewBox="0 0 14 15" fill="none" xmlns="http://www.w3.org/2000/svg">
    <path d="M11 11C11 11.5523 10.5523 12 10 12C9.44772 12 9 11.5523 9 11C9 10.4477 9.44772 10 10 10C10.5523 10 11 10.4477 11 11Z" fill="#2C2D2E"/>
    <path fill-rule="evenodd" clip-rule="evenodd" d="M4.00014 0.5C4.41435 0.5 4.75014 0.835786 4.75014 1.25V1.50051C4.89926 1.5 5.05532 1.5 5.21858 1.5H8.78142C8.94479 1.5 9.10093 1.5 9.25014 1.50052V1.25C9.25014 0.835786 9.58592 0.5 10.0001 0.5C10.4144 0.5 10.7501 0.835786 10.7501 1.25V1.56824C11.0976 1.61528 11.42 1.69859 11.7255 1.85423C12.337 2.16582 12.8342 2.663 13.1458 3.27453C13.3449 3.66527 13.4256 4.08367 13.4634 4.54693C13.5 4.99448 13.5 5.54518 13.5 6.21853V9.78144C13.5 10.4548 13.5 11.0055 13.4634 11.4531C13.4256 11.9163 13.3449 12.3347 13.1458 12.7255C12.8342 13.337 12.337 13.8342 11.7255 14.1458C11.3347 14.3449 10.9163 14.4256 10.4531 14.4634C10.0055 14.5 9.45483 14.5 8.78147 14.5H5.21856C4.54521 14.5 3.99448 14.5 3.54693 14.4634C3.08367 14.4256 2.66527 14.3449 2.27453 14.1458C1.663 13.8342 1.16582 13.337 0.854229 12.7255C0.655137 12.3347 0.574402 11.9163 0.536552 11.4531C0.499984 11.0055 0.499992 10.4548 0.5 9.78142V6.21858C0.499992 5.5452 0.499984 4.99449 0.536552 4.54693C0.574402 4.08367 0.655137 3.66527 0.854229 3.27453C1.16582 2.663 1.663 2.16582 2.27453 1.85423C2.58008 1.69854 2.90254 1.61523 3.25014 1.56821V1.25C3.25014 0.835786 3.58592 0.5 4.00014 0.5ZM9.25014 3.0006V3.25C9.25014 3.66421 9.58592 4 10.0001 4C10.4144 4 10.7501 3.66421 10.7501 3.25V3.08985C10.8755 3.11767 10.9678 3.15167 11.0445 3.19074C11.3738 3.35852 11.6415 3.62623 11.8093 3.95552C11.8827 4.09956 11.9382 4.29858 11.9684 4.66908C11.9957 5.00225 11.9994 5.4203 11.9999 6H2.00008C2.00059 5.4203 2.00435 5.00225 2.03157 4.66908C2.06184 4.29858 2.11735 4.09956 2.19074 3.95552C2.35852 3.62623 2.62623 3.35852 2.95552 3.19074C3.03225 3.15164 3.12459 3.11762 3.25014 3.08979V3.25C3.25014 3.66421 3.58592 4 4.00014 4C4.41435 4 4.75014 3.66421 4.75014 3.25V3.0006C4.90369 3.00004 5.06969 3 5.25 3H8.75C8.93041 3 9.09651 3.00004 9.25014 3.0006ZM2 7.5V9.75C2 10.4624 2.00058 10.9517 2.03157 11.3309C2.06184 11.7014 2.11735 11.9004 2.19074 12.0445C2.35852 12.3738 2.62623 12.6415 2.95552 12.8093C3.09956 12.8827 3.29858 12.9382 3.66908 12.9684C4.04833 12.9994 4.53756 13 5.25 13H8.75C9.46244 13 9.95167 12.9994 10.3309 12.9684C10.7014 12.9382 10.9004 12.8827 11.0445 12.8093C11.3738 12.6415 11.6415 12.3738 11.8093 12.0445C11.8827 11.9004 11.9382 11.7014 11.9684 11.3309C11.9994 10.9517 12 10.4624 12 9.75V7.5H2Z" fill="#2C2D2E"/>
</svg>
