<svg width="28" height="28" viewBox="0 0 28 28" fill="none" xmlns="http://www.w3.org/2000/svg">
    <path fill-rule="evenodd" clip-rule="evenodd" d="M8.67452 4.99998C9.2113 4.99998 9.3167 5.00641 9.40502 5.02761C9.50706 5.05211 9.6046 5.09251 9.69407 5.14734C9.77151 5.1948 9.85059 5.26478 10.2302 5.64434L11.3556 6.76983L11.4145 6.82877C11.702 7.11675 11.9554 7.37066 12.2609 7.5579C12.5293 7.72239 12.822 7.8436 13.1281 7.91709C13.4765 8.00074 13.8353 8.00041 14.2422 8.00003L14.3255 7.99998H19.4C20.3966 7.99998 21.0839 8.00076 21.6174 8.04434C22.1392 8.08698 22.4251 8.16553 22.635 8.27246C23.1054 8.51215 23.4878 8.8946 23.7275 9.365C23.9376 9.77735 23.9954 10.362 23.9995 12.0025C24.0009 12.5548 24.4498 13.0014 25.002 13C25.5543 12.9986 26.0009 12.5497 25.9995 11.9975C25.9958 10.5009 25.9802 9.38083 25.5095 8.45702C25.0781 7.61029 24.3897 6.92188 23.543 6.49045C23.0041 6.21591 22.4257 6.10372 21.7802 6.05099C21.1557 5.99996 20.3865 5.99997 19.4422 5.99998H19.4421L14.3255 5.99998C13.7887 5.99998 13.6833 5.99355 13.595 5.97235C13.4929 5.94785 13.3954 5.90745 13.3059 5.85262C13.2285 5.80516 13.1494 5.73517 12.7698 5.35561L11.6444 4.23013L11.5855 4.17118C11.298 3.8832 11.0446 3.62929 10.7391 3.44206C10.4707 3.27757 10.178 3.15636 9.87191 3.08287C9.52346 2.99922 9.16472 2.99955 8.75782 2.99993L8.67452 2.99998L8.55785 2.99998H8.55784C7.61355 2.99997 6.84431 2.99996 6.21978 3.05099C5.5743 3.10372 4.99586 3.21591 4.45704 3.49045C3.61031 3.92188 2.9219 4.61029 2.49047 5.45702C2.21593 5.99584 2.10374 6.57428 2.05101 7.21975C1.99998 7.84429 1.99999 8.61353 2 9.55782V9.55783V17.4421C1.99999 18.3864 1.99998 19.1557 2.05101 19.7802C2.10374 20.4257 2.21593 21.0041 2.49047 21.5429C2.9219 22.3897 3.61031 23.0781 4.45704 23.5095C4.99586 23.784 5.5743 23.8962 6.21978 23.949C6.8443 24 7.61354 24 8.55783 24H13C13.5523 24 14 23.5523 14 23C14 22.4477 13.5523 22 13 22H8.6C7.60341 22 6.9161 21.9992 6.38264 21.9556C5.86085 21.913 5.5749 21.8344 5.36502 21.7275C4.89462 21.4878 4.51217 21.1054 4.27248 20.635C4.16555 20.4251 4.087 20.1391 4.04436 19.6173C4.00078 19.0839 4 18.3966 4 17.4V9.59998C4 8.60339 4.00078 7.91608 4.04436 7.38262C4.087 6.86083 4.16555 6.57488 4.27248 6.365C4.51217 5.8946 4.89462 5.51215 5.36502 5.27246C5.5749 5.16553 5.86085 5.08698 6.38264 5.04434C6.9161 5.00076 7.60341 4.99998 8.6 4.99998H8.67452ZM18.9989 16.501C18.9989 15.1197 20.1187 14 21.5 14C22.8813 14 24.0011 15.1197 24.0011 16.501C24.0011 17.8823 22.8813 19.0021 21.5 19.0021C20.1187 19.0021 18.9989 17.8823 18.9989 16.501ZM16 23.6154V24.33C16 24.7 16.3 25 16.67 25H26.33C26.7 25 27 24.7 27 24.33V23.6154C27 21.1923 23.3356 20.5 21.5 20.5C19.6644 20.5 16 21.1923 16 23.6154Z" fill="#99A2AD"/>
</svg>
