<svg width="18" height="18" viewBox="0 0 18 18" fill="none" xmlns="http://www.w3.org/2000/svg">
    <path fill-rule="evenodd" clip-rule="evenodd" d="M9.00039 2.70001C9.23907 2.70001 9.46803 2.79484 9.63678 2.96361L12.3368 5.66361C12.6882 6.01509 12.6882 6.58493 12.3368 6.93641C11.9853 7.28788 11.4155 7.28788 11.064 6.93641L9.00039 4.8728L6.93679 6.93641C6.58531 7.28788 6.01547 7.28788 5.66399 6.93641C5.31252 6.58493 5.31252 6.01509 5.66399 5.66361L8.36399 2.96361C8.53278 2.79484 8.76169 2.70001 9.00039 2.70001ZM5.66399 11.0636C6.01547 10.7122 6.58531 10.7122 6.93679 11.0636L9.00039 13.1272L11.064 11.0636C11.4155 10.7122 11.9853 10.7122 12.3368 11.0636C12.6882 11.4151 12.6882 11.985 12.3368 12.3364L9.63678 15.0364C9.28533 15.3879 8.71547 15.3879 8.36399 15.0364L5.66399 12.3364C5.31252 11.985 5.31252 11.4151 5.66399 11.0636Z" fill="#99A2AD"/>
</svg>
