<svg width="20" height="20" viewBox="0 0 20 20" fill="none" xmlns="http://www.w3.org/2000/svg">
<path d="M2.99985 10.999L2.95908 10.9989L2.77774 10.9879C2.26195 10.9316 1.78599 10.681 1.44737 10.286C0.712449 9.42855 0.811744 8.13771 1.66915 7.40279L8.21017 1.7962C9.24002 0.913474 10.7597 0.913474 11.7895 1.7962L18.3305 7.40279C18.7838 7.79125 19.0446 8.35836 19.0446 8.95527C19.0446 10.0845 18.1291 11 16.9998 11V15.25C16.9998 16.4926 15.9925 17.5 14.7498 17.5H11.9498C11.4252 17.5 10.9998 17.0747 10.9998 16.55V13.5C10.9998 12.9477 10.5521 12.5 9.99985 12.5C9.44756 12.5 8.99985 12.9477 8.99985 13.5V16.55C8.99985 17.0747 8.57452 17.5 8.04985 17.5H5.24985C4.00721 17.5 2.99985 16.4926 2.99985 15.25V10.999ZM14.7498 16C15.1641 16 15.4998 15.6642 15.4998 15.25V10.35C15.4998 9.88056 15.8804 9.5 16.3498 9.5H16.9998C17.3007 9.5 17.5446 9.25611 17.5446 8.95527C17.5446 8.79624 17.4751 8.64516 17.3544 8.54167L10.8133 2.93508C10.3452 2.53385 9.65447 2.53385 9.18636 2.93508L2.64534 8.54167C2.41692 8.73746 2.39047 9.08135 2.58626 9.30977C2.67646 9.41501 2.80329 9.48178 2.89995 9.49345L2.99985 9.5H3.64985C4.11929 9.5 4.49985 9.88056 4.49985 10.35V15.25C4.49985 15.6642 4.83564 16 5.24985 16H7.49985V13.5C7.49985 12.1193 8.61914 11 9.99985 11C11.3806 11 12.4998 12.1193 12.4998 13.5V16H14.7498Z" fill="#2C2D2E"/>
</svg>
