<svg width="16" height="17" viewBox="0 0 16 17" fill="none" xmlns="http://www.w3.org/2000/svg">
    <path d="M10.5 4C10.5 2.61859 9.38141 1.5 8 1.5C6.61859 1.5 5.5 2.61859 5.5 4C5.5 5.38141 6.61859 6.5 8 6.5C9.38141 6.5 10.5 5.38141 10.5 4ZM12 4C12 6.20984 10.2098 8 8 8C5.79016 8 4 6.20984 4 4C4 1.79016 5.79016 0 8 0C10.2098 0 12 1.79016 12 4ZM2 14.5C2 15.2152 2.35765 15.5 3 15.5H13C13.6423 15.5 14 15.2152 14 14.5C14 12.1666 11.4334 11 8 11C4.56661 11 2 12.1666 2 14.5ZM0.5 14.5C0.5 11.0152 3.83339 9.5 8 9.5C12.1666 9.5 15.5 11.0152 15.5 14.5C15.5 16.1283 14.4053 17 13 17H3C1.59467 17 0.5 16.1283 0.5 14.5Z" fill="#2C2D2E"/>
</svg>
