<svg width="18" height="18" viewBox="0 0 18 18" fill="none" xmlns="http://www.w3.org/2000/svg">
    <path fill-rule="evenodd" clip-rule="evenodd" d="M6.22176 2.37826L6.2313 2.34537C6.2754 2.1953 6.32478 2.05406 6.37982 1.92175C6.38717 1.90408 6.39463 1.88656 6.40218 1.86921C6.75981 1.04778 7.34587 0.584315 8.25627 0.509257L8.42194 0.5L9.6305 0.500754C10.6814 0.533291 11.3649 1.10837 11.7252 2.19249L11.7823 2.37788L11.8264 2.54386C11.8425 2.60779 11.8625 2.67585 11.8859 2.74653L11.9358 2.88444L11.9654 2.89915L12.0254 2.87942L12.1417 2.83513L12.2773 2.77643C12.3338 2.75028 12.3897 2.72555 12.4449 2.70226L12.4812 2.68716C12.6052 2.63607 12.7262 2.59225 12.8444 2.55576C12.8648 2.54948 12.885 2.54342 12.9052 2.53758C13.8374 2.26744 14.5903 2.4618 15.2244 3.15476L15.3333 3.28009L16.0469 4.15975C16.6829 4.99255 16.6636 5.88269 16.0432 6.84345L15.9343 7.00423L15.8324 7.14281C15.7917 7.1966 15.7502 7.25622 15.7089 7.32028L15.6473 7.41954L15.618 7.46922L15.6215 7.48653L15.7013 7.53886L15.8114 7.60499L15.9448 7.67711C17.1535 8.29057 17.6523 9.09731 17.4599 10.218L17.4277 10.3803L17.2153 11.296C17.0777 11.8887 16.9697 12.1692 16.5446 12.5542C16.237 12.8328 15.8971 12.9895 15.4863 13.0725L15.4753 13.0747C15.3379 13.1019 15.1926 13.121 15.038 13.1338L14.8466 13.1461L14.674 13.1516C14.6571 13.1519 14.6399 13.1524 14.6224 13.1531L14.6163 13.1533C14.5663 13.1553 14.5139 13.1589 14.4598 13.1639L14.3025 13.1824L14.3139 13.3057L14.3255 13.3886L14.3536 13.5432C14.4221 13.8646 14.4551 14.1606 14.4515 14.4326L14.4514 14.4447C14.437 15.2843 14.0719 15.8944 13.32 16.3141L13.1727 16.3914L12.1504 16.8852C11.2487 17.2885 10.4277 17.119 9.66641 16.4179C9.64395 16.3972 9.62155 16.3761 9.59919 16.3545C9.57342 16.3296 9.54771 16.304 9.52208 16.2779L9.38907 16.1362L9.27623 16.0062C9.23224 15.9542 9.18261 15.9 9.12852 15.845L9.04419 15.7621L9.00099 15.7223L8.92123 15.7978L8.82987 15.8913L8.72749 16.0062C7.89874 16.9873 7.02405 17.3395 5.96387 16.9293L5.81114 16.8655L4.89632 16.4233L4.62456 16.285C4.21034 16.0601 3.9779 15.8446 3.75075 15.3675C3.595 15.0404 3.53387 14.7171 3.54221 14.3561L3.54262 14.3405C3.54801 14.1519 3.57214 13.953 3.61147 13.7379L3.65012 13.5432L3.65108 13.5387C3.66452 13.475 3.6763 13.4061 3.68618 13.3334L3.70212 13.185L3.69864 13.1816L3.60843 13.1696L3.48097 13.1582L3.32967 13.1516C3.0124 13.1459 2.72535 13.1138 2.46764 13.0539L2.45635 13.0512C1.6186 12.8534 1.09275 12.3603 0.847625 11.5266L0.804988 11.3665L0.551284 10.2647C0.346748 9.23895 0.75641 8.4473 1.73744 7.85424L1.90622 7.75723L2.0589 7.67711C2.11874 7.64674 2.18179 7.61152 2.24666 7.57227L2.38132 7.4848L2.3848 7.46835L2.33038 7.37499L2.26006 7.26667L2.17133 7.14281C2.13254 7.09155 2.09539 7.0406 2.05988 6.98994C1.9962 6.89912 1.9378 6.80924 1.88468 6.72024C1.34416 5.81451 1.35129 4.99911 1.93068 4.19712L2.0313 4.06512L2.74805 3.18795C3.43486 2.39611 4.31429 2.2298 5.38816 2.63354L5.56894 2.7061L5.72642 2.77643C5.78566 2.80386 5.85049 2.83088 5.91948 2.85693L6.03745 2.89829L6.06877 2.88358L6.09803 2.80687L6.13726 2.68749L6.17731 2.54386C6.19147 2.48754 6.20628 2.43234 6.22176 2.37826ZM10.4623 3.21897C10.4665 3.23163 10.4708 3.24424 10.4754 3.25678L10.5253 3.39469C10.6565 3.75748 10.9225 4.05575 11.2679 4.22753L11.2975 4.24225C11.6508 4.41792 12.059 4.44734 12.4338 4.32413L12.4939 4.3044C12.5159 4.29716 12.5378 4.2894 12.5594 4.28114L12.6757 4.23685C12.6965 4.22893 12.7171 4.22055 12.7375 4.21172L12.8731 4.15302C12.8847 4.14803 12.8961 4.14289 12.9075 4.1376C12.9489 4.11847 12.9888 4.10082 13.0274 4.08456C13.138 4.03794 13.2362 4.00337 13.3227 3.9783C13.5914 3.90042 13.7298 3.91843 13.7935 3.93526C13.8501 3.95021 13.9536 3.99136 14.1067 4.15546L14.1843 4.24479L14.8658 5.08472C15.0036 5.26993 15.0166 5.38018 15.0162 5.44399C15.0157 5.52789 14.9867 5.7108 14.7911 6.01732L14.7087 6.13886L14.6293 6.24692C14.5656 6.33163 14.505 6.41942 14.4481 6.50772L14.4349 6.52853L14.3732 6.62779L14.3652 6.64086L14.3543 6.65916L14.3251 6.70883C14.138 7.02696 14.0747 7.40289 14.1474 7.76471L14.1509 7.78202C14.2299 8.17529 14.4632 8.52053 14.7986 8.74061L14.8783 8.79295C14.895 8.80387 14.9118 8.81447 14.9289 8.82473L15.039 8.89085C15.0585 8.90256 15.0782 8.91382 15.0982 8.92462L15.2317 8.99674C15.243 9.00287 15.2544 9.00885 15.2659 9.01468C15.7224 9.24636 15.8858 9.43644 15.9424 9.53059C15.9782 9.59012 16.0255 9.69252 15.9842 9.94809L15.961 10.0647L15.7541 10.9571C15.6878 11.2424 15.6587 11.3072 15.6494 11.3257C15.6494 11.3257 15.6481 11.329 15.6399 11.3392C15.629 11.3527 15.6009 11.3851 15.5377 11.4424C15.4564 11.516 15.3718 11.566 15.1836 11.6033C15.115 11.6169 15.0311 11.6289 14.9269 11.6378L14.7744 11.6477L14.6356 11.6521L14.5645 11.6542C14.4836 11.6573 14.4024 11.6628 14.322 11.6702C14.3093 11.6714 14.2967 11.6727 14.2841 11.6742L14.1267 11.6928C13.3184 11.7881 12.7336 12.5107 12.8089 13.3212L12.8203 13.4444C12.8225 13.4676 12.8252 13.4907 12.8284 13.5137L12.84 13.5966C12.8428 13.6166 12.846 13.6366 12.8496 13.6565L12.8777 13.8112C12.8804 13.8261 12.8834 13.841 12.8865 13.8558C12.9369 14.0921 12.9535 14.2748 12.9517 14.413C12.949 14.6191 12.9064 14.7145 12.8785 14.761C12.8508 14.8071 12.7852 14.8923 12.6029 14.9964L12.4977 15.0517L11.5212 15.5232C11.3173 15.6115 11.2039 15.6052 11.1395 15.5928C11.0627 15.578 10.9107 15.5247 10.6826 15.3145C10.6569 15.2909 10.6305 15.2655 10.6033 15.2381L10.5027 15.1308L10.4146 15.0294C10.3453 14.9478 10.2722 14.8687 10.1977 14.793L10.1802 14.7755L10.0959 14.6926C10.0842 14.6811 10.0723 14.6697 10.0602 14.6586L10.017 14.6188C9.43697 14.0848 8.54259 14.091 7.96997 14.6328L7.89022 14.7083C7.87605 14.7217 7.86214 14.7354 7.8485 14.7494L7.75713 14.8428C7.74097 14.8594 7.72518 14.8763 7.7098 14.8936L7.60742 15.0085C7.59869 15.0183 7.59009 15.0282 7.58162 15.0382C7.26729 15.4103 7.04995 15.5341 6.93629 15.5739C6.8632 15.5995 6.75271 15.6232 6.52056 15.5363L6.42705 15.4972L5.56296 15.0795L5.32484 14.9583C5.26624 14.926 5.23252 14.9042 5.21307 14.8904C5.20303 14.8833 5.19728 14.8786 5.19451 14.8763C5.19192 14.8741 5.19077 14.8729 5.19077 14.8729C5.19077 14.8729 5.18977 14.8719 5.18781 14.8695C5.18578 14.8669 5.18151 14.8614 5.17503 14.8516C5.16171 14.8315 5.13834 14.7925 5.10507 14.7227C5.05964 14.6272 5.03757 14.5386 5.04201 14.3833C5.04459 14.293 5.05668 14.1758 5.08513 14.018L5.11961 13.8444C5.14108 13.7421 5.15852 13.6384 5.17249 13.5357C5.17439 13.5217 5.1761 13.5077 5.17761 13.4936L5.19354 13.3452C5.24216 12.8926 5.08258 12.4423 4.75974 12.1214L4.75626 12.1179C4.52369 11.8867 4.22175 11.738 3.89666 11.6947L3.80645 11.6827C3.78494 11.6798 3.76336 11.6774 3.74174 11.6755L3.61428 11.6641C3.5917 11.6621 3.56907 11.6606 3.54643 11.6596L3.39513 11.653C3.38231 11.6525 3.36948 11.6521 3.35665 11.6518C3.1222 11.6476 2.94253 11.6243 2.80703 11.5928C2.59247 11.5429 2.50228 11.4769 2.46085 11.4379C2.42088 11.4003 2.3522 11.3185 2.29134 11.119L2.26103 11.0051L2.01886 9.95344C1.97695 9.72869 2.01336 9.62434 2.0423 9.56627C2.08043 9.48975 2.18847 9.33672 2.50083 9.14559L2.62874 9.07207L2.74798 9.00949C2.84162 8.96161 2.93388 8.90966 3.02319 8.85562C3.03685 8.84736 3.05037 8.83888 3.06376 8.83018L3.19842 8.74271C3.53228 8.52584 3.76623 8.18516 3.84874 7.79571L3.85223 7.77926C3.92944 7.41485 3.86829 7.03474 3.68069 6.71292L3.62626 6.61956C3.61419 6.59885 3.60162 6.57842 3.58856 6.55831L3.51825 6.44999C3.50574 6.43071 3.49279 6.41173 3.4794 6.39304L3.39067 6.26919C3.38308 6.2586 3.37535 6.24811 3.36749 6.23772C3.06016 5.83156 2.9982 5.59144 2.98901 5.48421C2.98322 5.41664 2.98539 5.30313 3.13715 5.08871L3.20887 4.99461L3.89325 4.15707C4.04688 3.98428 4.15513 3.94599 4.22388 3.93191C4.31225 3.91381 4.50255 3.90523 4.84644 4.03243L4.98353 4.08745L5.10656 4.1424C5.19952 4.1851 5.29471 4.2244 5.38973 4.26027C5.40084 4.26446 5.412 4.26852 5.4232 4.27245L5.54117 4.31381C5.91213 4.44387 6.31932 4.42311 6.67512 4.256L6.70645 4.24128C7.05803 4.07615 7.33185 3.78108 7.47028 3.41815L7.49954 3.34144C7.5079 3.31952 7.51575 3.29741 7.52307 3.27512L7.5623 3.15574C7.5694 3.13412 7.57602 3.11233 7.58213 3.09041L7.62218 2.94678C7.62563 2.9344 7.62893 2.92198 7.63206 2.90953C7.64241 2.86835 7.65301 2.8289 7.66383 2.79111C7.70048 2.66307 7.739 2.55638 7.77749 2.46798C7.87742 2.23844 7.96892 2.14896 8.01982 2.11092C8.06389 2.07799 8.15434 2.02511 8.36308 2.00563L8.46335 2.00003L9.60297 2.00074C9.83737 2.01092 9.9357 2.07138 9.98851 2.11448C10.0562 2.16969 10.1809 2.30857 10.297 2.65151L10.3401 2.7915L10.3745 2.92077C10.4001 3.02129 10.4299 3.12133 10.4623 3.21897Z" fill="#E1E3E6"/>
    <path fill-rule="evenodd" clip-rule="evenodd" d="M9 10.5C9.82843 10.5 10.5 9.82843 10.5 9C10.5 8.17157 9.82843 7.5 9 7.5C8.17157 7.5 7.5 8.17157 7.5 9C7.5 9.82843 8.17157 10.5 9 10.5ZM9 12C10.6569 12 12 10.6569 12 9C12 7.34315 10.6569 6 9 6C7.34315 6 6 7.34315 6 9C6 10.6569 7.34315 12 9 12Z" fill="#E1E3E6"/>
</svg>
