<svg width="18" height="18" viewBox="0 0 18 18" fill="none" xmlns="http://www.w3.org/2000/svg">
    <path d="M12.9584 10.6333C13.1668 10.7416 13.3001 10.8 13.3418 10.8833C13.3918 10.975 13.3751 11.3916 13.1668 11.8666C13.0001 12.3333 12.1334 12.7833 11.7501 12.8C11.3668 12.8166 11.3584 13.1 9.28342 12.1916C7.20842 11.2833 5.95842 9.06663 5.85842 8.92496C5.75842 8.78329 5.05842 7.77496 5.09175 6.74996C5.13342 5.73329 5.66675 5.24996 5.88342 5.04996C6.08342 4.83329 6.30842 4.80829 6.45009 4.83329H6.84175C6.96675 4.83329 7.14175 4.78329 7.30009 5.20829L7.87509 6.76663C7.92509 6.87496 7.95842 6.99996 7.88342 7.13329L7.65842 7.47496L7.33342 7.82496C7.23342 7.92496 7.11675 8.03329 7.23342 8.24163C7.33342 8.45829 7.75009 9.14996 8.33342 9.72496C9.09175 10.4583 9.75842 10.7 9.95842 10.8083C10.1584 10.925 10.2834 10.9083 10.4084 10.775L11.0834 9.99163C11.2418 9.78329 11.3751 9.83329 11.5668 9.89996L12.9584 10.6333ZM9.00009 0.666626C10.0944 0.666626 11.1781 0.882174 12.1891 1.30096C13.2002 1.71975 14.1188 2.33358 14.8926 3.1074C15.6665 3.88122 16.2803 4.79988 16.6991 5.81093C17.1179 6.82198 17.3334 7.90561 17.3334 8.99996C17.3334 11.2101 16.4554 13.3297 14.8926 14.8925C13.3298 16.4553 11.2102 17.3333 9.00009 17.3333C7.35842 17.3333 5.83342 16.8583 4.54175 16.0416L0.666753 17.3333L1.95842 13.4583C1.11301 12.1251 0.664961 10.5786 0.666753 8.99996C0.666753 6.78982 1.54473 4.67021 3.10753 3.1074C4.67033 1.5446 6.78995 0.666626 9.00009 0.666626ZM9.00009 2.33329C7.23198 2.33329 5.53628 3.03567 4.28604 4.28591C3.0358 5.53616 2.33342 7.23185 2.33342 8.99996C2.33342 10.4333 2.78342 11.7583 3.55009 12.8416L2.75009 15.25L5.15842 14.45C6.28158 15.2446 7.62426 15.6698 9.00009 15.6666C10.7682 15.6666 12.4639 14.9642 13.7141 13.714C14.9644 12.4638 15.6668 10.7681 15.6668 8.99996C15.6668 7.23185 14.9644 5.53616 13.7141 4.28591C12.4639 3.03567 10.7682 2.33329 9.00009 2.33329Z" fill="#99A2AD"/>
</svg>
