<svg width="28" height="28" viewBox="0 0 28 28" fill="none" xmlns="http://www.w3.org/2000/svg">
    <path fill-rule="evenodd" clip-rule="evenodd" d="M20.2929 2.29289C20.4804 2.10536 20.7348 2 21 2H25C25.5523 2 26 2.44772 26 3V7C26 7.55228 25.5523 8 25 8H23V10C23 10.5523 22.5523 11 22 11H20V13C20 13.5523 19.5523 14 19 14H16.4142L16.3718 14.0424C17.0867 15.1913 17.5 16.5483 17.5 18C17.5 22.1421 14.1421 25.5 10 25.5C5.85786 25.5 2.5 22.1421 2.5 18C2.5 13.8579 5.85786 10.5 10 10.5C10.6391 10.5 11.2606 10.5802 11.8545 10.7313L20.2929 2.29289ZM21.4142 4L12.8467 12.5675C12.5754 12.8388 12.1729 12.9309 11.8106 12.8047C11.2449 12.6076 10.6361 12.5 10 12.5C6.96243 12.5 4.5 14.9624 4.5 18C4.5 21.0376 6.96243 23.5 10 23.5C13.0376 23.5 15.5 21.0376 15.5 18C15.5 16.6958 15.0473 15.5 14.2896 14.5574C13.9699 14.1596 14.001 13.5847 14.362 13.2238L15.2929 12.2929C15.4804 12.1054 15.7348 12 16 12H18V10C18 9.44772 18.4477 9 19 9H21V7C21 6.44772 21.4477 6 22 6H24V4H21.4142Z" fill="#2688EB"/>
    <path d="M10 19.5C10 20.3284 9.32843 21 8.5 21C7.67157 21 7 20.3284 7 19.5C7 18.6716 7.67157 18 8.5 18C9.32843 18 10 18.6716 10 19.5Z" fill="#2688EB"/>
</svg>
