<svg width="24" height="24" viewBox="0 0 24 24" fill="none" xmlns="http://www.w3.org/2000/svg">
    <path fill-rule="evenodd" clip-rule="evenodd" d="M11.9996 13C12.5519 13 12.9996 13.4477 12.9996 14V16C12.9996 16.5523 12.5519 17 11.9996 17C11.4473 17 10.9996 16.5523 10.9996 16V14C10.9996 13.4477 11.4473 13 11.9996 13Z" fill="#2688EB"/>
    <path fill-rule="evenodd" clip-rule="evenodd" d="M18.7702 8.52508C18.1917 8.23034 17.5399 8.15243 16.8996 8.12215V7.00001C16.8996 4.29381 14.7058 2.10001 11.9996 2.10001C9.29341 2.10001 7.09961 4.29381 7.09961 7.00001V8.12215C6.45933 8.15243 5.8075 8.23035 5.22905 8.52508C4.49522 8.89899 3.89859 9.49561 3.52469 10.2294C3.28577 10.6983 3.18889 11.2004 3.14347 11.7563C3.09959 12.2934 3.0996 12.9543 3.09961 13.7623V16.2377C3.0996 17.0458 3.09959 17.7066 3.14347 18.2437C3.18889 18.7996 3.28577 19.3017 3.52469 19.7706C3.89859 20.5044 4.49522 21.101 5.22905 21.4749C5.69794 21.7138 6.20002 21.8107 6.75593 21.8561C7.293 21.9 7.95385 21.9 8.76191 21.9H15.2373C16.0454 21.9 16.7062 21.9 17.2433 21.8561C17.7992 21.8107 18.3013 21.7138 18.7702 21.4749C19.504 21.101 20.1006 20.5044 20.4745 19.7706C20.7134 19.3017 20.8103 18.7996 20.8557 18.2437C20.8996 17.7066 20.8996 17.0458 20.8996 16.2377V13.7623C20.8996 12.9542 20.8996 12.2934 20.8557 11.7563C20.8103 11.2004 20.7134 10.6983 20.4745 10.2294C20.1006 9.49561 19.504 8.89899 18.7702 8.52508ZM6.9025 9.93789C6.4579 9.97422 6.21908 10.0408 6.04623 10.1289C5.65109 10.3302 5.32983 10.6515 5.1285 11.0466C5.04043 11.2195 4.97382 11.4583 4.93749 11.9029C4.90031 12.358 4.89961 12.9451 4.89961 13.8V16.2C4.89961 17.0549 4.90031 17.642 4.93749 18.0971C4.97382 18.5417 5.04043 18.7805 5.1285 18.9534C5.32983 19.3485 5.65109 19.6698 6.04623 19.8711C6.21908 19.9592 6.4579 20.0258 6.9025 20.0621C7.35761 20.0993 7.94468 20.1 8.79961 20.1H15.1996C16.0545 20.1 16.6416 20.0993 17.0967 20.0621C17.5413 20.0258 17.7801 19.9592 17.953 19.8711C18.3481 19.6698 18.6694 19.3485 18.8707 18.9534C18.9588 18.7805 19.0254 18.5417 19.0617 18.0971C19.0989 17.642 19.0996 17.0549 19.0996 16.2V13.8C19.0996 12.9451 19.0989 12.358 19.0617 11.9029C19.0254 11.4583 18.9588 11.2195 18.8707 11.0466C18.6694 10.6515 18.3481 10.3302 17.953 10.1289C17.7801 10.0408 17.5413 9.97422 17.0967 9.93789C16.6416 9.90071 16.0545 9.90001 15.1996 9.90001H8.79961C7.94468 9.90001 7.35761 9.90071 6.9025 9.93789ZM15.0996 7.00001C15.0996 5.28792 13.7117 3.90001 11.9996 3.90001C10.2875 3.90001 8.89961 5.28792 8.89961 7.00001V8.10001H15.0996V7.00001Z" fill="#2688EB"/>
    <path fill-rule="evenodd" clip-rule="evenodd" d="M12.9996 14C12.9996 13.4477 12.5519 13 11.9996 13C11.4473 13 10.9996 13.4477 10.9996 14V16C10.9996 16.5523 11.4473 17 11.9996 17C12.5519 17 12.9996 16.5523 12.9996 16V14Z" fill="#2688EB"/>
</svg>
