<svg width="28" height="28" viewBox="0 0 28 28" fill="none" xmlns="http://www.w3.org/2000/svg">
    <path d="M13.484 1.50201C13.8336 1.45213 14.1664 1.45213 14.516 1.50201C14.8613 1.55127 15.1493 1.62896 15.8124 1.84999L22.6325 4.12334C23.4491 4.39557 24 5.15985 24 6.02071V15.3C24 20.0944 21.1216 23.7673 15.5419 26.2423L15.1736 26.4022C14.4237 26.7209 13.5763 26.7209 12.8264 26.4022C7.00734 23.9286 4 20.2024 4 15.3V6.02071C4 5.15985 4.55086 4.39557 5.36754 4.12334L12.3757 1.78787C12.9089 1.61371 13.1733 1.54634 13.484 1.50201ZM14.2335 3.48196C14.0713 3.45881 13.9287 3.45881 13.7665 3.48196C13.5666 3.51048 13.3784 3.56123 12.8201 3.74736L6 6.02071V15.3C6 19.3159 8.47107 22.3776 13.6088 24.5615C13.8588 24.6678 14.1412 24.6678 14.3841 24.5646L14.7381 24.4109C19.6408 22.2362 22 19.2258 22 15.3V6.02071L15.0231 3.69547C14.6814 3.58334 14.5024 3.532 14.3551 3.50264L14.2335 3.48196Z" fill="#2688EB"/>
    <path d="M19.0571 10.6928C18.6666 10.3023 18.0334 10.3023 17.6429 10.6928L12.75 15.5857L10.8571 13.6928C10.4666 13.3023 9.83341 13.3023 9.44289 13.6928C9.05236 14.0834 9.05236 14.7165 9.44289 15.107L12.0429 17.7071C12.4334 18.0976 13.0666 18.0976 13.4571 17.7071L19.0571 12.107C19.4476 11.7165 19.4476 11.0834 19.0571 10.6928Z" fill="#2688EB"/>
</svg>
