<svg width="24" height="24" viewBox="0 0 24 24" fill="none" xmlns="http://www.w3.org/2000/svg">
    <path d="M11.9996 4.60001C17.1993 4.60001 22.3996 8.83727 22.3996 12C22.3996 15.1627 17.1993 19.4 11.9996 19.4C6.79989 19.4 1.59961 15.1627 1.59961 12C1.59961 8.83727 6.79989 4.60001 11.9996 4.60001ZM11.9996 6.40001C7.72205 6.40001 3.39961 9.922 3.39961 12C3.39961 14.078 7.72205 17.6 11.9996 17.6C16.2772 17.6 20.5996 14.078 20.5996 12C20.5996 9.922 16.2772 6.40001 11.9996 6.40001ZM11.9996 8.60001C13.8774 8.60001 15.3996 10.1222 15.3996 12C15.3996 13.8778 13.8774 15.4 11.9996 15.4C10.1218 15.4 8.59961 13.8778 8.59961 12C8.59961 10.1222 10.1218 8.60001 11.9996 8.60001ZM11.9996 10.4C11.116 10.4 10.3996 11.1164 10.3996 12C10.3996 12.8837 11.116 13.6 11.9996 13.6C12.8833 13.6 13.5996 12.8837 13.5996 12C13.5996 11.1164 12.8833 10.4 11.9996 10.4Z" fill="#99A2AD"/>
</svg>
