<svg width="40" height="40" viewBox="0 0 40 40" fill="none" xmlns="http://www.w3.org/2000/svg">
<path d="M11.5319 12.2591C11.8563 12.579 11.8868 13.0845 11.6208 13.4391L11.5409 13.5319L6.05 19.1L20.1 19.1C20.5971 19.1 21 19.5029 21 20C21 20.4588 20.6567 20.8375 20.2129 20.893L20.1 20.9H6.05L11.5409 26.4681C11.8608 26.7926 11.884 27.2984 11.6131 27.6493L11.5319 27.7409C11.2074 28.0608 10.7016 28.084 10.3507 27.8131L10.2591 27.7319L3.25911 20.6319C2.94242 20.3107 2.91603 19.8109 3.17994 19.4599L3.25911 19.3681L10.2591 12.2681C10.6081 11.9142 11.1779 11.9101 11.5319 12.2591Z" fill="#76787A"/>
</svg>
