<svg width="17" height="17" viewBox="0 0 17 17" fill="none" xmlns="http://www.w3.org/2000/svg">
    <path d="M4.82845 13.7515C5.03326 13.5199 5.35919 13.4378 5.64932 13.5445C6.46246 13.8438 7.34083 14 8.25 14C12.0222 14 15 11.3063 15 8C15 4.69372 12.0222 2 8.25 2C4.47776 2 1.5 4.69372 1.5 8C1.5 9.21078 1.89926 10.3669 2.63941 11.349C2.74548 11.4898 2.7986 11.6634 2.78944 11.8394C2.75014 12.5951 2.38697 13.6243 1.70517 14.9738C3.18838 14.8584 4.21926 14.4403 4.82845 13.7515ZM1.24205 16.5003C1.03326 16.5067 0.826405 16.4586 0.641798 16.3608C0.0539091 16.0496 -0.17032 15.3206 0.140954 14.7328C0.784849 13.5166 1.15699 12.5928 1.26217 12.0034C0.443337 10.8188 0 9.4399 0 8C0 3.82989 3.681 0.5 8.25 0.5C12.819 0.5 16.5 3.82989 16.5 8C16.5 12.1701 12.819 15.5 8.25 15.5C7.33199 15.5 6.43685 15.3661 5.59029 15.1068C4.59352 15.9884 3.13438 16.4427 1.24205 16.5003Z" fill="#E1E3E6"/>
</svg>
