<svg width="16" height="12" viewBox="0 -2 16 16" fill="none" xmlns="http://www.w3.org/2000/svg">
    <path d="M1.5 12C1.0875 12 0.734375 11.853 0.440625 11.5591C0.146875 11.2652 0 10.9119 0 10.4992V1.4941C0 1.08137 0.146875 0.729167 0.440625 0.4375C0.734375 0.145833 1.0875 0 1.5 0H14.5C14.9125 0 15.2656 0.146958 15.5594 0.440875C15.8531 0.734791 16 1.08811 16 1.50083V10.5059C16 10.9186 15.8531 11.2708 15.5594 11.5625C15.2656 11.8542 14.9125 12 14.5 12H1.5ZM8 7L1.5 3.27083V10.5H14.5V3.27083L8 7ZM8 5.22917L14.5 1.5H1.5L8 5.22917ZM1.5 3.27083V1.5V10.5V3.27083Z" fill="#99A2AD"/>
</svg>
