<svg xmlns="http://www.w3.org/2000/svg" width="103" height="83" viewBox="0 0 103 83" fill="none">
    <path fill-rule="evenodd" clip-rule="evenodd" d="M10.5728 9.9096C11.6398 8.84263 13.3697 8.84263 14.4367 9.9096L90.9367 86.4096C92.0036 87.4766 92.0036 89.2065 90.9367 90.2734C89.8697 91.3404 88.1398 91.3404 87.0728 90.2734L75.1231 78.3237H55.5293L38.8877 94.9653C35.5372 98.3158 29.8083 95.9428 29.8083 91.2045V78.3237H28.052C25.091 78.3237 22.7027 78.3237 20.7687 78.1657C18.7774 78.003 17.0283 77.6593 15.4101 76.8347C12.8396 75.525 10.7498 73.4352 9.4401 70.8648C8.61558 69.2466 8.27184 67.4975 8.10915 65.5061C7.95113 63.5721 7.95115 61.1838 7.95117 58.2228V34.6746C7.95115 31.7135 7.95113 29.3252 8.10915 27.3912C8.27184 25.3998 8.61558 23.6508 9.4401 22.0325C10.4671 20.0169 11.9739 18.2967 13.816 17.0166L10.5728 13.7734C9.50586 12.7065 9.50586 10.9766 10.5728 9.9096ZM17.7854 20.986C16.2914 21.7747 15.0767 23.0063 14.3088 24.5133C13.9422 25.2328 13.6904 26.1827 13.5553 27.8361C13.4176 29.5214 13.4155 31.6861 13.4155 34.7915V58.1058C13.4155 61.2112 13.4176 63.3759 13.5553 65.0612C13.6904 66.7146 13.9422 67.6645 14.3088 68.384C15.0946 69.9263 16.3485 71.1802 17.8908 71.966C18.6103 72.3326 19.5602 72.5845 21.2137 72.7196C22.899 72.8572 25.0637 72.8594 28.169 72.8594H32.5405C34.0494 72.8594 35.2726 74.0826 35.2726 75.5915V90.8527L52.4657 73.6596C52.9781 73.1472 53.673 72.8594 54.3976 72.8594H69.6588L17.7854 20.986ZM82.1173 20.1778C80.432 20.0401 78.2673 20.0379 75.1619 20.0379H33.4512C31.9423 20.0379 30.719 18.8147 30.719 17.3058C30.719 15.7969 31.9423 14.5737 33.4512 14.5737L75.2789 14.5737C78.2399 14.5736 80.6282 14.5736 82.5622 14.7316C84.5536 14.8943 86.3026 15.2381 87.9209 16.0626C90.4913 17.3723 92.5811 19.4621 93.8908 22.0325C94.7153 23.6508 95.0591 25.3998 95.2218 27.3912C95.3798 29.3252 95.3798 31.7135 95.3797 34.6745V58.2228C95.3798 61.1838 95.3798 63.5721 95.2218 65.5061C95.0591 67.4975 94.7153 69.2466 93.8908 70.8648C93.1036 72.4099 92.0344 73.7813 90.7485 74.914C89.6162 75.9114 87.8898 75.802 86.8924 74.6697C85.895 73.5374 86.0044 71.811 87.1367 70.8136C87.9083 70.1339 88.5498 69.3111 89.0221 68.384C89.3887 67.6645 89.6406 66.7146 89.7756 65.0612C89.9133 63.3759 89.9155 61.2112 89.9155 58.1058V34.7915C89.9155 31.6861 89.9133 29.5214 89.7756 27.8361C89.6406 26.1827 89.3887 25.2328 89.0221 24.5133C88.2363 22.971 86.9824 21.7171 85.4401 20.9313C84.7206 20.5647 83.7707 20.3129 82.1173 20.1778Z" fill="#8B74FF" fill-opacity="0.5"/>
</svg>