<svg xmlns="http://www.w3.org/2000/svg" width="103" height="80" viewBox="0 0 103 80" fill="none">
    <path d="M51.3345 7.28571C75.4773 7.28571 95.0488 26.8573 95.0488 51C95.0488 75.1427 75.4773 94.7143 51.3345 94.7143C38.7349 94.7143 26.9938 89.3509 18.7538 80.1456C17.7474 79.0213 17.843 77.2941 18.9673 76.2877C20.0915 75.2813 21.8188 75.3769 22.8252 76.5012C30.0392 84.5603 40.3056 89.25 51.3345 89.25C72.4594 89.25 89.5845 72.1249 89.5845 51C89.5845 29.8751 72.4594 12.75 51.3345 12.75C39.4458 12.75 28.4781 18.2103 21.2919 27.3216L30.3881 27.3214C33.9298 27.3214 34.0282 32.4864 30.6833 32.7733L30.3881 32.7857H14.906C13.4858 32.7857 12.3187 31.7022 12.1863 30.3167L12.1738 30.0536V14.5714C12.1738 13.0625 13.3971 11.8393 14.906 11.8393C16.3261 11.8393 17.4932 12.9228 17.6256 14.3083L17.6381 14.5714L17.6369 23.1508C25.85 13.2154 38.0964 7.28571 51.3345 7.28571ZM51.3345 29.1429C52.7547 29.1429 53.9218 30.2264 54.0542 31.6119L54.0667 31.875V49.8689L65.1057 60.9074C66.106 61.9076 66.1685 63.4906 65.2933 64.5637L65.1057 64.7712C64.1055 65.7715 62.5225 65.834 61.4494 64.9588L61.2419 64.7712L49.4026 52.9319C48.9543 52.4836 48.6779 51.8955 48.6158 51.27L48.6024 51V31.875C48.6024 30.3661 49.8256 29.1429 51.3345 29.1429Z" fill="#8B74FF" fill-opacity="0.5"/>
</svg>