<svg width="16" height="16" viewBox="0 0 16 16" fill="none" xmlns="http://www.w3.org/2000/svg">
    <path d="M12 11C12 11.5523 11.5523 12 11 12C10.4477 12 10 11.5523 10 11C10 10.4477 10.4477 10 11 10C11.5523 10 12 10.4477 12 11Z" fill="#E1E3E6"/>
    <path fill-rule="evenodd" clip-rule="evenodd" d="M5.00014 0.5C5.41435 0.5 5.75014 0.835786 5.75014 1.25V1.50051C5.89926 1.5 6.05532 1.5 6.21858 1.5H9.78142C9.94479 1.5 10.1009 1.5 10.2501 1.50052V1.25C10.2501 0.835786 10.5859 0.5 11.0001 0.5C11.4144 0.5 11.7501 0.835786 11.7501 1.25V1.56824C12.0976 1.61528 12.42 1.69859 12.7255 1.85423C13.337 2.16582 13.8342 2.663 14.1458 3.27453C14.3449 3.66527 14.4256 4.08367 14.4634 4.54693C14.5 4.99448 14.5 5.54518 14.5 6.21853V9.78144C14.5 10.4548 14.5 11.0055 14.4634 11.4531C14.4256 11.9163 14.3449 12.3347 14.1458 12.7255C13.8342 13.337 13.337 13.8342 12.7255 14.1458C12.3347 14.3449 11.9163 14.4256 11.4531 14.4634C11.0055 14.5 10.4548 14.5 9.78147 14.5H6.21856C5.54521 14.5 4.99448 14.5 4.54693 14.4634C4.08367 14.4256 3.66527 14.3449 3.27453 14.1458C2.663 13.8342 2.16582 13.337 1.85423 12.7255C1.65514 12.3347 1.5744 11.9163 1.53655 11.4531C1.49998 11.0055 1.49999 10.4548 1.5 9.78142V6.21858C1.49999 5.5452 1.49998 4.99449 1.53655 4.54693C1.5744 4.08367 1.65514 3.66527 1.85423 3.27453C2.16582 2.663 2.663 2.16582 3.27453 1.85423C3.58008 1.69854 3.90254 1.61523 4.25014 1.56821V1.25C4.25014 0.835786 4.58592 0.5 5.00014 0.5ZM10.2501 3.0006V3.25C10.2501 3.66421 10.5859 4 11.0001 4C11.4144 4 11.7501 3.66421 11.7501 3.25V3.08985C11.8755 3.11767 11.9678 3.15167 12.0445 3.19074C12.3738 3.35852 12.6415 3.62623 12.8093 3.95552C12.8827 4.09956 12.9382 4.29858 12.9684 4.66908C12.9957 5.00225 12.9994 5.4203 12.9999 6H3.00008C3.00059 5.4203 3.00435 5.00225 3.03157 4.66908C3.06184 4.29858 3.11735 4.09956 3.19074 3.95552C3.35852 3.62623 3.62623 3.35852 3.95552 3.19074C4.03225 3.15164 4.12459 3.11762 4.25014 3.08979V3.25C4.25014 3.66421 4.58592 4 5.00014 4C5.41435 4 5.75014 3.66421 5.75014 3.25V3.0006C5.90369 3.00004 6.06969 3 6.25 3H9.75C9.93041 3 10.0965 3.00004 10.2501 3.0006ZM3 7.5V9.75C3 10.4624 3.00058 10.9517 3.03157 11.3309C3.06184 11.7014 3.11735 11.9004 3.19074 12.0445C3.35852 12.3738 3.62623 12.6415 3.95552 12.8093C4.09956 12.8827 4.29858 12.9382 4.66908 12.9684C5.04833 12.9994 5.53756 13 6.25 13H9.75C10.4624 13 10.9517 12.9994 11.3309 12.9684C11.7014 12.9382 11.9004 12.8827 12.0445 12.8093C12.3738 12.6415 12.6415 12.3738 12.8093 12.0445C12.8827 11.9004 12.9382 11.7014 12.9684 11.3309C12.9994 10.9517 13 10.4624 13 9.75V7.5H3Z" fill="#E1E3E6"/>
</svg>
