<svg width="24" height="24" viewBox="0 0 24 24" fill="none" xmlns="http://www.w3.org/2000/svg">
    <path d="M11.9996 13C12.5519 13 12.9996 13.4477 12.9996 14V16C12.9996 16.5523 12.5519 17 11.9996 17C11.4473 17 10.9996 16.5523 10.9996 16V14C10.9996 13.4477 11.4473 13 11.9996 13Z" fill="#3F8AE0"/>
    <path fill-rule="evenodd" clip-rule="evenodd" d="M7.09971 6.99961C7.09971 4.29341 9.29351 2.09961 11.9997 2.09961C13.8145 2.09961 15.3977 3.08669 16.2436 4.54896C16.2982 4.64331 16.3497 4.73967 16.3981 4.83791C16.4318 4.9064 16.464 4.9758 16.4946 5.04608C16.6929 5.50186 16.4842 6.03211 16.0284 6.23042C15.5726 6.42874 15.0423 6.22002 14.844 5.76424C14.8247 5.71991 14.8044 5.6761 14.7831 5.63285C14.7526 5.57081 14.72 5.50992 14.6855 5.45026C14.1482 4.52132 13.146 3.89961 11.9997 3.89961C10.2876 3.89961 8.89971 5.28753 8.89971 6.99961V8.1L15.2373 8.1C16.0453 8.09999 16.7062 8.09998 17.2433 8.14386C17.7992 8.18928 18.3013 8.28616 18.7702 8.52507C19.504 8.89898 20.1006 9.4956 20.4745 10.2294C20.7134 10.6983 20.8103 11.2004 20.8557 11.7563C20.8996 12.2934 20.8996 12.9542 20.8996 13.7623V16.2377C20.8996 17.0458 20.8996 17.7066 20.8557 18.2437C20.8103 18.7996 20.7134 19.3017 20.4745 19.7706C20.1006 20.5044 19.504 21.101 18.7702 21.4749C18.3013 21.7138 17.7992 21.8107 17.2433 21.8561C16.7062 21.9 16.0454 21.9 15.2374 21.9H8.76191C7.9539 21.9 7.29298 21.9 6.75593 21.8561C6.20001 21.8107 5.69794 21.7138 5.22905 21.4749C4.49522 21.101 3.89859 20.5044 3.52468 19.7706C3.28577 19.3017 3.18889 18.7996 3.14347 18.2437C3.09959 17.7066 3.0996 17.0458 3.09961 16.2377V13.7623C3.0996 12.9543 3.09959 12.2934 3.14347 11.7563C3.18889 11.2004 3.28577 10.6983 3.52468 10.2294C3.89859 9.4956 4.49522 8.89898 5.22905 8.52507C5.69794 8.28616 6.20001 8.18928 6.75593 8.14386C6.86532 8.13492 6.97985 8.12781 7.09971 8.12214V6.99961ZM6.9025 9.93788C6.45791 9.97421 6.21908 10.0408 6.04623 10.1289C5.65109 10.3302 5.32983 10.6515 5.1285 11.0466C5.04043 11.2195 4.97382 11.4583 4.93749 11.9029C4.90031 12.358 4.89961 12.9451 4.89961 13.8V16.2C4.89961 17.0549 4.90031 17.642 4.93749 18.0971C4.97382 18.5417 5.04043 18.7805 5.1285 18.9534C5.32983 19.3485 5.65109 19.6698 6.04623 19.8711C6.21908 19.9592 6.45791 20.0258 6.9025 20.0621C7.35761 20.0993 7.94468 20.1 8.79961 20.1H15.1996C16.0545 20.1 16.6416 20.0993 17.0967 20.0621C17.5413 20.0258 17.7801 19.9592 17.953 19.8711C18.3481 19.6698 18.6694 19.3485 18.8707 18.9534C18.9588 18.7805 19.0254 18.5417 19.0617 18.0971C19.0989 17.642 19.0996 17.0549 19.0996 16.2V13.8C19.0996 12.9451 19.0989 12.358 19.0617 11.9029C19.0254 11.4583 18.9588 11.2195 18.8707 11.0466C18.6694 10.6515 18.3481 10.3302 17.953 10.1289C17.7801 10.0408 17.5413 9.97421 17.0967 9.93788C16.6416 9.9007 16.0545 9.9 15.1996 9.9H8.79961C7.94468 9.9 7.35761 9.9007 6.9025 9.93788Z" fill="#3F8AE0"/>
</svg>
